<mxfile host="app.diagrams.net" agent="Mozilla/5.0 (Windows NT 10.0; Win64; x64) AppleWebKit/537.36 (KHTML, like Gecko) Chrome/134.0.0.0 Safari/537.36" version="26.1.1">
  <diagram name="Page-1" id="58cdce13-f638-feb5-8d6f-7d28b1aa9fa0">
    <mxGraphModel dx="388" dy="779" grid="1" gridSize="10" guides="1" tooltips="1" connect="1" arrows="1" fold="1" page="1" pageScale="1" pageWidth="1100" pageHeight="850" background="none" math="0" shadow="0">
      <root>
        <mxCell id="0" />
        <mxCell id="1" parent="0" />
        <mxCell id="qwKWh7A5scszt2xiq6uB-7" style="edgeStyle=orthogonalEdgeStyle;rounded=0;orthogonalLoop=1;jettySize=auto;html=1;" edge="1" parent="1" source="qwKWh7A5scszt2xiq6uB-20" target="382b91b5511bd0f7-6">
          <mxGeometry relative="1" as="geometry">
            <mxPoint x="160" y="150" as="sourcePoint" />
          </mxGeometry>
        </mxCell>
        <mxCell id="qwKWh7A5scszt2xiq6uB-23" style="edgeStyle=orthogonalEdgeStyle;rounded=0;orthogonalLoop=1;jettySize=auto;html=1;entryX=1;entryY=0.5;entryDx=0;entryDy=0;" edge="1" parent="1" source="382b91b5511bd0f7-5" target="qwKWh7A5scszt2xiq6uB-19">
          <mxGeometry relative="1" as="geometry" />
        </mxCell>
        <mxCell id="qwKWh7A5scszt2xiq6uB-24" value="&lt;div&gt;&lt;br&gt;&lt;/div&gt;&lt;div&gt;Заказ закрыт&lt;/div&gt;" style="edgeLabel;html=1;align=center;verticalAlign=middle;resizable=0;points=[];" vertex="1" connectable="0" parent="qwKWh7A5scszt2xiq6uB-23">
          <mxGeometry x="0.0333" y="-5" relative="1" as="geometry">
            <mxPoint as="offset" />
          </mxGeometry>
        </mxCell>
        <mxCell id="382b91b5511bd0f7-5" value="Закрыт" style="rounded=1;whiteSpace=wrap;html=1;arcSize=24;fillColor=#ffffc0;strokeColor=#ff0000;shadow=0;comic=0;labelBackgroundColor=none;fontFamily=Verdana;fontSize=12;fontColor=#000000;align=center;" parent="1" vertex="1">
          <mxGeometry x="1060" y="330" width="120" height="60" as="geometry" />
        </mxCell>
        <mxCell id="qwKWh7A5scszt2xiq6uB-8" style="edgeStyle=orthogonalEdgeStyle;rounded=0;orthogonalLoop=1;jettySize=auto;html=1;" edge="1" parent="1" source="qwKWh7A5scszt2xiq6uB-14" target="382b91b5511bd0f7-7">
          <mxGeometry relative="1" as="geometry" />
        </mxCell>
        <mxCell id="qwKWh7A5scszt2xiq6uB-28" style="edgeStyle=orthogonalEdgeStyle;rounded=0;orthogonalLoop=1;jettySize=auto;html=1;exitX=0.5;exitY=1;exitDx=0;exitDy=0;entryX=0.5;entryY=0;entryDx=0;entryDy=0;" edge="1" parent="1" source="382b91b5511bd0f7-6" target="qwKWh7A5scszt2xiq6uB-26">
          <mxGeometry relative="1" as="geometry" />
        </mxCell>
        <mxCell id="qwKWh7A5scszt2xiq6uB-29" value="Не правельный товар" style="edgeLabel;html=1;align=center;verticalAlign=middle;resizable=0;points=[];" vertex="1" connectable="0" parent="qwKWh7A5scszt2xiq6uB-28">
          <mxGeometry x="0.1143" y="4" relative="1" as="geometry">
            <mxPoint as="offset" />
          </mxGeometry>
        </mxCell>
        <mxCell id="382b91b5511bd0f7-6" value="&lt;span style=&quot;color: rgb(33, 37, 41); font-family: system-ui, -apple-system, &amp;quot;Segoe UI&amp;quot;, Roboto, &amp;quot;Helvetica Neue&amp;quot;, &amp;quot;Noto Sans&amp;quot;, &amp;quot;Liberation Sans&amp;quot;, Arial, sans-serif, &amp;quot;Apple Color Emoji&amp;quot;, &amp;quot;Segoe UI Emoji&amp;quot;, &amp;quot;Segoe UI Symbol&amp;quot;, &amp;quot;Noto Color Emoji&amp;quot;; font-size: 16px; text-align: start; background-color: rgb(255, 255, 255);&quot;&gt;Создан&lt;/span&gt;" style="rounded=1;whiteSpace=wrap;html=1;arcSize=24;fillColor=#ffffc0;strokeColor=#ff0000;shadow=0;comic=0;labelBackgroundColor=none;fontFamily=Verdana;fontSize=12;fontColor=#000000;align=center;" parent="1" vertex="1">
          <mxGeometry x="240" y="120" width="120" height="60" as="geometry" />
        </mxCell>
        <mxCell id="382b91b5511bd0f7-7" value="Оплачен" style="rounded=1;whiteSpace=wrap;html=1;arcSize=24;fillColor=#ffffc0;strokeColor=#ff0000;shadow=0;comic=0;labelBackgroundColor=none;fontFamily=Verdana;fontSize=12;fontColor=#000000;align=center;" parent="1" vertex="1">
          <mxGeometry x="530" y="120" width="120" height="60" as="geometry" />
        </mxCell>
        <mxCell id="qwKWh7A5scszt2xiq6uB-10" style="edgeStyle=orthogonalEdgeStyle;rounded=0;orthogonalLoop=1;jettySize=auto;html=1;entryX=0;entryY=0.5;entryDx=0;entryDy=0;" edge="1" parent="1" source="382b91b5511bd0f7-9" target="382b91b5511bd0f7-10">
          <mxGeometry relative="1" as="geometry" />
        </mxCell>
        <mxCell id="qwKWh7A5scszt2xiq6uB-22" value="Заказ доставляется" style="edgeLabel;html=1;align=center;verticalAlign=middle;resizable=0;points=[];" vertex="1" connectable="0" parent="qwKWh7A5scszt2xiq6uB-10">
          <mxGeometry x="0.0857" y="1" relative="1" as="geometry">
            <mxPoint as="offset" />
          </mxGeometry>
        </mxCell>
        <mxCell id="382b91b5511bd0f7-9" value="Отправлен" style="rounded=1;whiteSpace=wrap;html=1;arcSize=24;fillColor=#ffffc0;strokeColor=#ff0000;shadow=0;comic=0;labelBackgroundColor=none;fontFamily=Verdana;fontSize=12;fontColor=#000000;align=center;" parent="1" vertex="1">
          <mxGeometry x="790" y="120" width="120" height="60" as="geometry" />
        </mxCell>
        <mxCell id="qwKWh7A5scszt2xiq6uB-11" style="edgeStyle=orthogonalEdgeStyle;rounded=0;orthogonalLoop=1;jettySize=auto;html=1;entryX=0.5;entryY=0;entryDx=0;entryDy=0;" edge="1" parent="1" source="382b91b5511bd0f7-10" target="382b91b5511bd0f7-5">
          <mxGeometry relative="1" as="geometry" />
        </mxCell>
        <mxCell id="qwKWh7A5scszt2xiq6uB-21" value="Доставлен&lt;div&gt;в пункт SDS&lt;/div&gt;" style="edgeLabel;html=1;align=center;verticalAlign=middle;resizable=0;points=[];" vertex="1" connectable="0" parent="qwKWh7A5scszt2xiq6uB-11">
          <mxGeometry x="-0.1733" y="-1" relative="1" as="geometry">
            <mxPoint x="1" as="offset" />
          </mxGeometry>
        </mxCell>
        <mxCell id="382b91b5511bd0f7-10" value="Доставлен" style="rounded=1;whiteSpace=wrap;html=1;arcSize=24;fillColor=#ffffc0;strokeColor=#ff0000;shadow=0;comic=0;labelBackgroundColor=none;fontFamily=Verdana;fontSize=12;fontColor=#000000;align=center;" parent="1" vertex="1">
          <mxGeometry x="1060" y="120" width="120" height="60" as="geometry" />
        </mxCell>
        <mxCell id="qwKWh7A5scszt2xiq6uB-13" value="" style="edgeStyle=orthogonalEdgeStyle;rounded=0;orthogonalLoop=1;jettySize=auto;html=1;" edge="1" parent="1" source="qwKWh7A5scszt2xiq6uB-16" target="382b91b5511bd0f7-9">
          <mxGeometry relative="1" as="geometry">
            <mxPoint x="550" y="150" as="sourcePoint" />
            <mxPoint x="600" y="150" as="targetPoint" />
          </mxGeometry>
        </mxCell>
        <mxCell id="qwKWh7A5scszt2xiq6uB-15" value="" style="edgeStyle=orthogonalEdgeStyle;rounded=0;orthogonalLoop=1;jettySize=auto;html=1;" edge="1" parent="1" source="382b91b5511bd0f7-6" target="qwKWh7A5scszt2xiq6uB-14">
          <mxGeometry relative="1" as="geometry">
            <mxPoint x="360" y="150" as="sourcePoint" />
            <mxPoint x="530" y="150" as="targetPoint" />
          </mxGeometry>
        </mxCell>
        <mxCell id="qwKWh7A5scszt2xiq6uB-14" value="Проверка&lt;div&gt;наличии&amp;nbsp;&lt;/div&gt;&lt;div&gt;заказа&lt;/div&gt;" style="text;html=1;align=center;verticalAlign=middle;whiteSpace=wrap;rounded=0;" vertex="1" parent="1">
          <mxGeometry x="410" y="135" width="60" height="30" as="geometry" />
        </mxCell>
        <mxCell id="qwKWh7A5scszt2xiq6uB-17" value="" style="edgeStyle=orthogonalEdgeStyle;rounded=0;orthogonalLoop=1;jettySize=auto;html=1;" edge="1" parent="1" source="382b91b5511bd0f7-7" target="qwKWh7A5scszt2xiq6uB-16">
          <mxGeometry relative="1" as="geometry">
            <mxPoint x="650" y="150" as="sourcePoint" />
            <mxPoint x="790" y="150" as="targetPoint" />
          </mxGeometry>
        </mxCell>
        <mxCell id="qwKWh7A5scszt2xiq6uB-16" value="Проверка&amp;nbsp;&lt;div&gt;оплаты/придёт умедовление&lt;/div&gt;" style="text;html=1;align=center;verticalAlign=middle;whiteSpace=wrap;rounded=0;" vertex="1" parent="1">
          <mxGeometry x="690" y="135" width="60" height="30" as="geometry" />
        </mxCell>
        <mxCell id="qwKWh7A5scszt2xiq6uB-19" value="" style="ellipse;html=1;shape=endState;fillColor=strokeColor;" vertex="1" parent="1">
          <mxGeometry x="910" y="345" width="30" height="30" as="geometry" />
        </mxCell>
        <mxCell id="qwKWh7A5scszt2xiq6uB-20" value="" style="ellipse;fillColor=strokeColor;html=1;" vertex="1" parent="1">
          <mxGeometry x="145" y="135" width="30" height="30" as="geometry" />
        </mxCell>
        <mxCell id="qwKWh7A5scszt2xiq6uB-27" style="edgeStyle=orthogonalEdgeStyle;rounded=0;orthogonalLoop=1;jettySize=auto;html=1;" edge="1" parent="1" source="qwKWh7A5scszt2xiq6uB-26" target="qwKWh7A5scszt2xiq6uB-19">
          <mxGeometry relative="1" as="geometry" />
        </mxCell>
        <mxCell id="qwKWh7A5scszt2xiq6uB-26" value="&lt;div style=&quot;text-align: start;&quot;&gt;&lt;font face=&quot;system-ui, -apple-system, Segoe UI, Roboto, Helvetica Neue, Noto Sans, Liberation Sans, Arial, sans-serif, Apple Color Emoji, Segoe UI Emoji, Segoe UI Symbol, Noto Color Emoji&quot; color=&quot;#212529&quot;&gt;&lt;span style=&quot;font-size: 16px; background-color: rgb(255, 255, 255);&quot;&gt;Отмена&lt;/span&gt;&lt;/font&gt;&lt;/div&gt;" style="rounded=1;whiteSpace=wrap;html=1;arcSize=24;fillColor=#ffffc0;strokeColor=#ff0000;shadow=0;comic=0;labelBackgroundColor=none;fontFamily=Verdana;fontSize=12;fontColor=#000000;align=center;" vertex="1" parent="1">
          <mxGeometry x="240" y="250" width="120" height="60" as="geometry" />
        </mxCell>
      </root>
    </mxGraphModel>
  </diagram>
</mxfile>
